<?xml version="1.0" standalone="no"?>
<!DOCTYPE svg PUBLIC "-//W3C//DTD SVG 20010904//EN"
 "http://www.w3.org/TR/2001/REC-SVG-20010904/DTD/svg10.dtd">
<svg version="1.0" xmlns="http://www.w3.org/2000/svg"
 width="16.000000pt" height="16.000000pt" viewBox="0 0 16.000000 16.000000"
 preserveAspectRatio="xMidYMid meet">
<metadata>
Created by potrace 1.11, written by Peter Selinger 2001-2013
</metadata>
<g transform="translate(0.000000,16.000000) scale(0.002286,-0.002286)"
fill="#000000" stroke="none">
<path d="M4529 6996 c-2 -2 -29 -7 -59 -10 -95 -11 -123 -18 -185 -46 -167
-74 -226 -206 -228 -500 0 -127 7 -241 18 -299 4 -21 11 -66 20 -131 10 -69
53 -264 82 -370 14 -52 26 -99 27 -105 14 -78 161 -486 253 -705 125 -293 362
-734 466 -865 4 -5 35 -48 69 -95 100 -139 262 -315 339 -367 13 -9 26 -19 29
-22 24 -27 157 -99 221 -120 123 -40 212 -26 311 47 413 305 900 1382 1023
2262 3 25 8 56 10 70 21 141 34 464 21 530 -25 131 -93 237 -205 323 -31 23
-61 47 -67 53 -22 20 -219 114 -304 144 -177 64 -380 110 -635 145 -60 9 -123
17 -140 20 -38 5 -253 23 -370 30 -102 7 -691 16 -696 11z"/>
<path d="M2937 6883 c-2 -1 -23 -4 -49 -7 -57 -7 -106 -14 -178 -26 -30 -5
-75 -12 -100 -15 -25 -4 -124 -22 -220 -42 -96 -19 -186 -37 -200 -39 -14 -3
-43 -10 -65 -16 -22 -5 -51 -12 -65 -15 -24 -4 -199 -49 -310 -79 -30 -9 -127
-38 -215 -66 -602 -189 -1046 -417 -1287 -662 -134 -136 -201 -344 -202 -631
0 -91 12 -292 23 -370 6 -39 13 -92 16 -120 4 -27 8 -57 10 -65 3 -8 11 -53
20 -100 8 -47 17 -95 20 -107 13 -58 16 -70 20 -94 3 -15 21 -89 40 -165 20
-77 38 -146 40 -155 51 -224 268 -853 412 -1194 151 -358 308 -689 445 -944
96 -178 115 -212 196 -350 289 -496 556 -857 847 -1146 182 -181 279 -260 430
-346 323 -186 578 -167 960 71 92 57 113 73 260 190 145 116 410 367 515 490
12 13 42 47 68 75 26 28 67 75 92 105 25 30 61 72 80 95 19 22 49 58 65 79 17
21 35 44 40 50 6 6 40 49 75 96 36 47 70 92 77 100 71 84 476 680 468 688 -2
2 -38 -4 -81 -13 -102 -21 -254 -22 -319 -2 -79 23 -154 61 -233 117 -77 54
-259 228 -334 320 -43 52 -188 245 -215 286 -7 11 -31 45 -53 77 -22 32 -40
60 -40 63 0 3 -13 24 -29 48 -91 131 -353 619 -461 856 -29 63 -67 147 -85
185 -89 189 -249 599 -346 885 -114 334 -231 777 -255 963 -2 15 -6 39 -9 55
-10 54 -19 179 -18 277 0 293 46 442 175 566 l37 37 -30 -2 c-17 0 -31 -2 -32
-3z"/>
</g>
</svg>
